# xmcd
#
# Track frame offsets:
#	150
#	11797
#	31595
#	49690
#	63512
#	85682
#	106555
#	123082
#	135985
#	148155
#	163777
#	174050
#	194847
#	213445
#	231735
#	246487
#	259590
#	269315
#	288897
#	308645
#
# Disc length: 4357 seconds
#
# Revision: 2
# Processed by: cddbd v1.5.2PL0 Copyright (c) Steve Scherf et al.
# Submitted via: audiograbber 1.83.01
#
DISCID=16110314
DTITLE=Daniel O'Donnell - The Irish Album [Disc 1]
DYEAR=2002
DGENRE=Country
TTITLE0=Pretty Little Girl From Omagh
TTITLE1=The Isle Of Innisfree
TTITLE2=Sing An Old Irish Song
TTITLE3=Forty Shades Of Green
TTITLE4=Three Leaf Shamrock
TTITLE5=Dublin In The Rare Auld Times
TTITLE6=Blue Hills Of Breffni
TTITLE7=Green Glens Of Antrim
TTITLE8=The Old Dungarvan Oak
TTITLE9=My Donegal Shore
TTITLE10=Home Is Where The Heart Is
TTITLE11=The Mountains Of Mourne
TTITLE12=Far Far From Home
TTITLE13=Danny Boy
TTITLE14=Any Tipperary Town
TTITLE15=Irish Eyes
TTITLE16=Our House Is A Home
TTITLE17=Galway Bay
TTITLE18=Come Back Paddy Reilly To Ballyjamesduff
TTITLE19=I'll Take You Home Again Kathleen
EXTD=
EXTT0=
EXTT1=
EXTT2=
EXTT3=
EXTT4=
EXTT5=
EXTT6=
EXTT7=
EXTT8=
EXTT9=
EXTT10=
EXTT11=
EXTT12=
EXTT13=
EXTT14=
EXTT15=
EXTT16=
EXTT17=
EXTT18=
EXTT19=
PLAYORDER=
